<svg version="1.1" xmlns="http://www.w3.org/2000/svg" xmlns:xlink="http://www.w3.org/1999/xlink" width="304.30033" height="304.30025" viewBox="0,0,304.30033,304.30025"><defs><linearGradient x1="305.22076" y1="166.7097" x2="367.40343" y2="443.18518" gradientUnits="userSpaceOnUse" id="color-1"><stop offset="0" stop-color="#4f4b40"/><stop offset="1" stop-color="#2f2d27"/></linearGradient><linearGradient x1="356.81467" y1="181.67663" x2="294.63194" y2="458.1521" gradientUnits="userSpaceOnUse" id="color-2"><stop offset="0" stop-color="#4f4b40"/><stop offset="1" stop-color="#2f2d27"/></linearGradient><linearGradient x1="337.14179" y1="63.12788" x2="330.82415" y2="139.61777" gradientUnits="userSpaceOnUse" id="color-3"><stop offset="0" stop-color="#725137"/><stop offset="1" stop-color="#26201c"/></linearGradient><linearGradient x1="326.91791" y1="175.56682" x2="360.37756" y2="175.56682" gradientUnits="userSpaceOnUse" id="color-4"><stop offset="0" stop-color="#ff9c40"/><stop offset="1" stop-color="#ff6a00"/></linearGradient><linearGradient x1="326.91785" y1="175.56688" x2="360.3775" y2="175.56688" gradientUnits="userSpaceOnUse" id="color-5"><stop offset="0" stop-color="#ffb169"/><stop offset="1" stop-color="#ff8731"/></linearGradient></defs><g transform="translate(-182.8499,-32.8499)"><g stroke-miterlimit="10"><path d="M184.84994,275.23519c0,-59.99896 0,-148.11906 0,-181.81815c0,-26.16557 22.73163,-58.56714 54.69562,-58.56714c60.91162,0 155.35022,0 189.899,0c25.1397,0 55.70568,31.10369 55.70568,56.54696c0,34.37139 0,127.20919 0,187.87876c0,32.57375 -30.56593,55.87453 -55.70568,55.87453c-33.79375,0 -124.88841,0 -185.85858,0c-34.07175,0 -58.73599,-25.26921 -58.73599,-59.91496z" fill="#83a08b" stroke="#83a08b" stroke-width="4" stroke-linecap="butt"/><g stroke-width="20"><path d="M258.90545,218.40942l-38.05118,4.01343l7.22581,-14.47566l24.95127,-0.08611l-14.91924,-26.05781l14.38971,-1.33558l21.38148,36.42012c0,0 9.03918,9.77193 10.30426,13.89196c0.93507,3.04527 -3.40011,8.59326 -3.40011,8.59326c-1.53161,1.03535 7.3154,-5.72193 5.64726,-4.9387c-3.35895,1.57709 -12.37502,1.37215 -15.70402,3.01161c-0.22943,0.11297 -0.45593,0.22701 -0.67979,0.34204z" fill="url(#color-1)" stroke="none" stroke-linecap="butt"/><path d="M391.98437,252.75502c-0.22386,-0.115 -0.45036,-0.22907 -0.67979,-0.34204c-3.32899,-1.63949 -7.15442,-2.08333 -10.51337,-3.66046c-1.66814,-0.78323 -3.20241,-1.81191 -4.73408,-2.84726l33.4762,-50.47052l14.38971,1.33558l-14.91924,26.05781l30.14194,6.57435l-9.64377,6.0408l-26.37227,-2.06692z" fill="url(#color-2)" stroke="none" stroke-linecap="butt"/><path d="M277.66684,174.51059c0,-28.71234 23.27589,-51.98823 51.98823,-51.98823c28.71234,0 51.98823,23.27589 51.98823,51.98823c0,28.71234 -23.27589,51.98823 -51.98823,51.98823c-28.71234,0 -51.98823,-23.27589 -51.98823,-51.98823z" fill="#ffffff" stroke="none" stroke-linecap="butt"/><path d="M264.48668,267.0644c0,-36.3959 29.50471,-65.90061 65.90061,-65.90061c36.3959,0 68.81772,28.25453 68.81772,64.6504c0,6.79234 0.13114,22.9583 0.13114,22.9583c0,0 -16.97183,1.25983 -22.26207,6.03398c-5.38671,4.86111 -17.15471,2.91222 -23.18716,2.21146c-8.75353,-1.01692 -12.3853,-2.49709 -24.89766,-2.49709c-24.52009,0 -52.81134,5.08634 -61.89654,-5.86355c-1.78391,-2.15005 -2.7734,-3.43618 -2.7734,-3.43618c0,0 0.16733,-11.0955 0.16733,-18.1567z" fill="#ffffff" stroke="none" stroke-linecap="butt"/><path d="M277.78788,285.89644c20.14002,0 108.38264,0 108.38264,0" fill="none" stroke="#ffffff" stroke-linecap="round"/><path d="M297.34795,136.85285c0,0 0.74406,-57.25243 0.89584,-68.92935c0.05171,-3.97804 3.52589,-7.03117 8.80833,-5.53602c4.19618,1.18776 11.12669,4.60005 16.87688,6.27719c7.32136,2.13528 13.36013,1.87053 19.94392,3.69024c6.99115,1.9323 14.49663,4.76497 17.82306,5.49974c8.36752,1.84819 9.2488,4.7485 8.82468,9.84419c-0.09733,1.16953 -0.29275,2.33149 -0.4185,3.42695c-1.18406,10.31564 -5.59317,48.73042 -5.59317,48.73042z" fill="url(#color-3)" stroke="none" stroke-linecap="butt"/><path d="M284.52153,133.43836c16.43795,1.35762 93.56211,7.72773 93.56211,7.72773" fill="none" stroke="#6a4d38" stroke-linecap="round"/><path d="M294.00752,212.27942c0,0 17.83691,-10.75912 36.37967,-10.69887c22.42183,0.07282 34.6301,9.82164 34.6301,9.82164c0,0 -16.51917,7.63216 -36.31349,7.93092c-18.73311,-0.08694 -34.69634,-7.05366 -34.69634,-7.05366z" fill="#ff4040" stroke="none" stroke-linecap="butt"/><path d="M323.17859,281.27686c0,-3.47562 2.8176,-6.29322 6.29322,-6.29322c3.47562,0 6.29322,2.8176 6.29322,6.29322c0,3.47562 -2.8176,6.29322 -6.29322,6.29322c-3.47562,0 -6.29322,-2.8176 -6.29322,-6.29322z" fill="#232323" stroke="none" stroke-linecap="butt"/><path d="M324.27302,255.55677c0,-2.87118 2.32756,-5.1988 5.1988,-5.1988c2.87118,0 5.1988,2.32756 5.1988,5.1988c0,2.87118 -2.32756,5.19874 -5.1988,5.19874c-2.87118,0 -5.1988,-2.32756 -5.1988,-5.19874z" fill="#232323" stroke="none" stroke-linecap="butt"/><path d="M326.91791,185.30056v-19.46747l33.45964,9.12535z" fill="url(#color-4)" stroke="none" stroke-linecap="butt"/><path d="M326.91785,185.30056v-9.78375l33.45964,-0.5583z" fill="url(#color-5)" stroke="none" stroke-linecap="butt"/></g><path d="M184.84991,275.23519c0,-59.99896 0,-148.11906 0,-181.81815c0,-26.16557 22.73163,-58.56714 54.69562,-58.56714c60.91162,0 155.35022,0 189.899,0c25.1397,0 55.70568,31.10369 55.70568,56.54696c0,34.37139 0,127.20919 0,187.87876c0,32.57375 -30.56593,55.87453 -55.70568,55.87453c-33.79375,0 -124.88841,0 -185.85858,0c-34.07175,0 -58.73599,-25.26921 -58.73599,-59.91496z" fill="#83a08b" stroke="#83a08b" stroke-width="4" stroke-linecap="butt"/><path d="M329.58306,269.64829c0,-8.22573 6.66824,-14.89396 14.89396,-14.89396c8.22573,0 26.95083,10.56897 27.30551,21.98624c0.25533,8.22189 -19.08,7.80167 -27.30551,7.80167c-8.22573,0 -14.89396,-6.66824 -14.89396,-14.89396z" fill="#000000" stroke="#a246ff" stroke-width="2" stroke-linecap="butt"/><path d="M351.34884,230.98958c0,-7.72773 6.26454,-13.99228 13.99228,-13.99228c7.72773,0 13.99228,6.26454 13.99228,13.99228c0,7.72773 -6.26454,13.99228 -13.99228,13.99228c-7.72773,0 -13.99228,-6.26454 -13.99228,-13.99228z" fill="#000000" stroke="#a246ff" stroke-width="2" stroke-linecap="butt"/><path d="M291.70709,256.75323l39.4305,-56.41331l39.4305,56.41331z" fill="#000000" stroke="#a246ff" stroke-width="2" stroke-linecap="butt"/><path d="M286.01992,197.61929l45.64016,-78.06802l45.64032,78.06802z" fill="#000000" stroke="#a246ff" stroke-width="2" stroke-linecap="butt"/><path d="M327.24748,162.1095v13.6341" fill="none" stroke="#a246ff" stroke-width="5" stroke-linecap="round"/><path d="M343.85207,161.84741v13.63394" fill="none" stroke="#a246ff" stroke-width="5" stroke-linecap="round"/><path d="M324.60884,187.19363c0,0 -3.02079,1.6106 -8.6851,1.51684c-5.30611,-0.08795 -5.2111,-4.40106 -5.2111,-4.40106" fill="none" stroke="#a246ff" stroke-width="5" stroke-linecap="round"/><path d="M278.49998,230.10127c0,-7.72773 6.26454,-13.99228 13.99228,-13.99228c7.72773,0 13.99228,6.26454 13.99228,13.99228c0,7.72773 -6.26454,13.99228 -13.99228,13.99228c-7.72773,0 -13.99228,-6.26454 -13.99228,-13.99228z" fill="#000000" stroke="#a246ff" stroke-width="2" stroke-linecap="butt"/><path d="M288.27243,271.63428c0,-8.09598 6.56307,-14.65905 14.65905,-14.65905c8.09598,0 26.526,10.4025 26.87487,21.63971c0.25151,8.09201 -18.77889,7.67843 -26.87487,7.67843c-8.09598,0 -14.65905,-6.56307 -14.65905,-14.65905z" fill="#000000" stroke="#a246ff" stroke-width="2" stroke-linecap="butt"/></g></g></svg>