<svg version="1.1" xmlns="http://www.w3.org/2000/svg" xmlns:xlink="http://www.w3.org/1999/xlink" width="39.8334" height="65.54552" viewBox="0,0,39.8334,65.54552"><g transform="translate(-307.49998,-139.56988)"><g stroke-miterlimit="10"><path d="M327.66671,197.86872c0,-3.08635 2.50197,-5.58832 5.58832,-5.58832c3.08635,0 10.11214,3.96555 10.24522,8.24939c0.0958,3.08491 -7.15895,2.92724 -10.24522,2.92724c-3.08635,0 -5.58832,-2.50197 -5.58832,-5.58832z" fill="#000000" stroke="#a246ff" stroke-width="2" stroke-linecap="butt"/><path d="M335.83338,183.3637c0,-2.8995 2.3505,-5.25 5.25,-5.25c2.8995,0 5.25,2.3505 5.25,5.25c0,2.8995 -2.3505,5.25 -5.25,5.25c-2.8995,0 -5.25,-2.3505 -5.25,-5.25z" fill="#000000" stroke="#a246ff" stroke-width="2" stroke-linecap="butt"/><path d="M313.45538,193.0304l14.7946,-21.16667l14.7946,21.16667z" fill="#000000" stroke="#a246ff" stroke-width="2" stroke-linecap="butt"/><path d="M311.32151,170.84293l17.12451,-29.29167l17.12457,29.29167z" fill="#000000" stroke="#a246ff" stroke-width="2" stroke-linecap="butt"/><path d="M325.80035,166.93114c0,0 -1.13342,0.60431 -3.25871,0.56913c-1.99089,-0.033 -1.95524,-1.65131 -1.95524,-1.65131" fill="none" stroke="#a246ff" stroke-width="5" stroke-linecap="round"/><path d="M308.49998,183.0304c0,-2.8995 2.3505,-5.25 5.25,-5.25c2.8995,0 5.25,2.3505 5.25,5.25c0,2.8995 -2.3505,5.25 -5.25,5.25c-2.8995,0 -5.25,-2.3505 -5.25,-5.25z" fill="#000000" stroke="#a246ff" stroke-width="2" stroke-linecap="butt"/><path d="M312.16667,198.61388c0,-3.03767 2.46251,-5.50018 5.50018,-5.50018c3.03767,0 9.95274,3.90309 10.08364,8.11937c0.09437,3.03618 -7.04597,2.881 -10.08364,2.881c-3.03767,0 -5.50018,-2.46251 -5.50018,-5.50018z" fill="#000000" stroke="#a246ff" stroke-width="2" stroke-linecap="butt"/><path d="M328.90683,161.9c0,0.83763 -0.67903,1.51667 -1.51667,1.51667c-0.83763,0 -1.51667,-0.67903 -1.51667,-1.51667c0,-0.83763 0.67903,-1.51667 1.51667,-1.51667c0.83763,0 1.51667,0.67903 1.51667,1.51667z" fill="#a246ff" stroke="none" stroke-width="0" stroke-linecap="butt"/><path d="M335.30683,162.1c0,0.83763 -0.67903,1.51666 -1.51666,1.51666c-0.83763,0 -1.51667,-0.67903 -1.51667,-1.51666c0,-0.83763 0.67904,-1.51667 1.51667,-1.51667c0.83763,0 1.51666,0.67904 1.51666,1.51667z" fill="#a246ff" stroke="none" stroke-width="0" stroke-linecap="butt"/></g></g></svg>