<svg version="1.1" xmlns="http://www.w3.org/2000/svg" xmlns:xlink="http://www.w3.org/1999/xlink" width="175.00001" height="274.47525" viewBox="0,0,175.00001,274.47525"><defs><linearGradient x1="240" y1="35.75" x2="240" y2="254.25001" gradientUnits="userSpaceOnUse" id="color-1"><stop offset="0" stop-color="#ff0000"/><stop offset="1" stop-color="#ff6f00"/></linearGradient></defs><g transform="translate(-152.50001,-7.76237)"><g stroke-miterlimit="10"><path d="M164.62872,282.23762c-6.69851,0 -12.12871,-5.15094 -12.12871,-11.50495v-251.46535c0,-6.35401 5.43021,-11.50495 12.12872,-11.50495h150.74257c6.69851,0 12.12872,5.15094 12.12872,11.50495v251.46535c0,6.35401 -5.43021,11.50495 -12.12871,11.50495z" fill="#0c0c0c" stroke="none" stroke-width="0" stroke-linecap="butt"/><path d="M238.30556,24c0,-0.92637 0.75863,-1.67733 1.69445,-1.67733c0.93581,0 1.69445,0.75097 1.69445,1.67733c0,0.92637 -0.75863,1.67733 -1.69445,1.67733c-0.93581,0 -1.69445,-0.75097 -1.69445,-1.67733z" fill="#ffffff" stroke="none" stroke-width="0" stroke-linecap="butt"/><path d="M163.5,254.25001v-218.5h153v218.5z" fill="url(#color-1)" stroke="none" stroke-width="0" stroke-linecap="butt"/><text transform="translate(170.34722,60.90515) scale(0.4802,0.4802)" font-size="40" xml:space="preserve" fill="#ffffff" stroke="none" stroke-width="1" stroke-linecap="butt" font-family="Sans Serif" font-weight="normal" text-anchor="start"><tspan x="0" dy="0">Factory Reset</tspan><tspan x="0" dy="46.150000000000006px">Protection</tspan></text><text transform="translate(169.84722,95.31997) scale(0.20327,0.20327)" font-size="40" xml:space="preserve" fill="#ffffff" stroke="none" stroke-width="1" stroke-linecap="butt" font-family="Sans Serif" font-weight="normal" text-anchor="start"><tspan x="0" dy="0">This Fire Tablet was reset in recovery</tspan><tspan x="0" dy="46.150000000000006px">or was remotely reset. To continue </tspan><tspan x="0" dy="46.150000000000006px">with setup, log in with the original</tspan><tspan x="0" dy="46.150000000000006px">Amazon account used to set it up.</tspan></text><text transform="translate(168.84721,136.26922) scale(0.20465,0.20465)" font-size="40" xml:space="preserve" fill="#ffffff" stroke="none" stroke-width="1" stroke-linecap="butt" font-family="Sans Serif" font-weight="normal" text-anchor="start"><tspan x="0" dy="0">Email</tspan></text><path d="M307.84721,149.49207h-138.5" fill="none" stroke="#ffffff" stroke-width="2" stroke-linecap="round"/><text transform="translate(167.84721,147.12118) scale(0.25659,0.27212)" font-size="40" xml:space="preserve" fill-opacity="0.6902" fill="#ffffff" stroke="none" stroke-width="1" stroke-linecap="butt" font-family="Sans Serif" font-weight="normal" text-anchor="start"><tspan x="0" dy="0">Enter your Amazon email</tspan></text><path d="M169.34722,172.49207h138.5" fill="none" stroke="#ffffff" stroke-width="2" stroke-linecap="round"/><text transform="translate(168.34722,170.12118) scale(0.25075,0.27213)" font-size="40" xml:space="preserve" fill-opacity="0.6902" fill="#ffffff" stroke="none" stroke-width="1" stroke-linecap="butt" font-family="Sans Serif" font-weight="normal" text-anchor="start"><tspan x="0" dy="0">Enter your Amazon password</tspan></text><text transform="translate(169.34722,160.26923) scale(0.20465,0.20465)" font-size="40" xml:space="preserve" fill="#ffffff" stroke="none" stroke-width="1" stroke-linecap="butt" font-family="Sans Serif" font-weight="normal" text-anchor="start"><tspan x="0" dy="0">Password</tspan></text><path d="M261.84721,248.99207v-20h46v20z" fill-opacity="0.87059" fill="#ff2500" stroke="none" stroke-width="0" stroke-linecap="butt"/><text transform="translate(262.84721,243.89087) scale(0.36707,0.36707)" font-size="40" xml:space="preserve" fill="#ffffff" stroke="none" stroke-width="1" stroke-linecap="butt" font-family="Sans Serif" font-weight="normal" text-anchor="start"><tspan x="0" dy="0">Log In</tspan></text><path d="M152.84721,29.09049l18,33.5l23,-2.5l4,24.5l-15.5,13.5l54.5,17.5l4.5,14l34.5,-16.5l11.5,24.5l6.5,19.5l-8,16.5" fill="none" stroke="#ffffff" stroke-width="0.5" stroke-linecap="round"/></g></g></svg>