<svg version="1.1" xmlns="http://www.w3.org/2000/svg" xmlns:xlink="http://www.w3.org/1999/xlink" width="176" height="274.47525" viewBox="0,0,176,274.47525"><defs><linearGradient x1="240" y1="35.75" x2="240" y2="254.25001" gradientUnits="userSpaceOnUse" id="color-1"><stop offset="0" stop-color="#ff6f00"/><stop offset="1" stop-color="#ffc500"/></linearGradient></defs><g transform="translate(-152.09721,-7.76237)"><g stroke-miterlimit="10"><path d="M164.62872,282.23762c-6.69851,0 -12.12871,-5.15094 -12.12871,-11.50495v-251.46535c0,-6.35401 5.43021,-11.50495 12.12872,-11.50495h150.74257c6.69851,0 12.12872,5.15094 12.12872,11.50495v251.46535c0,6.35401 -5.43021,11.50495 -12.12871,11.50495z" fill="#0c0c0c" stroke="none" stroke-width="0" stroke-linecap="butt"/><path d="M238.30556,24c0,-0.92637 0.75863,-1.67733 1.69445,-1.67733c0.93581,0 1.69445,0.75097 1.69445,1.67733c0,0.92637 -0.75863,1.67733 -1.69445,1.67733c-0.93581,0 -1.69445,-0.75097 -1.69445,-1.67733z" fill="#ffffff" stroke="none" stroke-width="0" stroke-linecap="butt"/><path d="M163.5,254.25001v-218.5h153v218.5z" fill="url(#color-1)" stroke="none" stroke-width="0" stroke-linecap="butt"/><text transform="translate(170.34722,60.90515) scale(0.4802,0.4802)" font-size="40" xml:space="preserve" fill="#ffffff" stroke="none" stroke-width="1" stroke-linecap="butt" font-family="Sans Serif" font-weight="normal" text-anchor="start"><tspan x="0" dy="0">Factory Reset</tspan><tspan x="0" dy="46.150000000000006px">Protection</tspan></text><text transform="translate(169.84722,95.31997) scale(0.20327,0.20327)" font-size="40" xml:space="preserve" fill="#ffffff" stroke="none" stroke-width="1" stroke-linecap="butt" font-family="Sans Serif" font-weight="normal" text-anchor="start"><tspan x="0" dy="0">This Fire Tablet was reset in recovery</tspan><tspan x="0" dy="46.150000000000006px">or was remotely reset. To continue </tspan><tspan x="0" dy="46.150000000000006px">with setup, log in with the original</tspan><tspan x="0" dy="46.150000000000006px">Amazon account used to set it up.</tspan></text><text transform="translate(168.84721,136.26922) scale(0.20465,0.20465)" font-size="40" xml:space="preserve" fill="#ffffff" stroke="none" stroke-width="1" stroke-linecap="butt" font-family="Sans Serif" font-weight="normal" text-anchor="start"><tspan x="0" dy="0">Email</tspan></text><path d="M169.34721,149.49207h138.5" fill="none" stroke="#ffffff" stroke-width="2" stroke-linecap="round"/><text transform="translate(167.84721,147.12118) scale(0.25659,0.27212)" font-size="40" xml:space="preserve" fill-opacity="0.6902" fill="#ffffff" stroke="none" stroke-width="1" stroke-linecap="butt" font-family="Sans Serif" font-weight="normal" text-anchor="start"><tspan x="0" dy="0">Enter your Amazon email</tspan></text><path d="M169.34722,172.49207h138.5" fill="none" stroke="#ffffff" stroke-width="2" stroke-linecap="round"/><text transform="translate(168.34722,170.12118) scale(0.25075,0.27213)" font-size="40" xml:space="preserve" fill-opacity="0.6902" fill="#ffffff" stroke="none" stroke-width="1" stroke-linecap="butt" font-family="Sans Serif" font-weight="normal" text-anchor="start"><tspan x="0" dy="0">Enter your Amazon password</tspan></text><text transform="translate(169.34722,160.26923) scale(0.20465,0.20465)" font-size="40" xml:space="preserve" fill="#ffffff" stroke="none" stroke-width="1" stroke-linecap="butt" font-family="Sans Serif" font-weight="normal" text-anchor="start"><tspan x="0" dy="0">Password</tspan></text><path d="M261.84721,248.99207v-20h46v20z" fill-opacity="0.87059" fill="#ff5700" stroke="none" stroke-width="0" stroke-linecap="butt"/><text transform="translate(262.84721,243.89087) scale(0.36707,0.36707)" font-size="40" xml:space="preserve" fill="#ffffff" stroke="none" stroke-width="1" stroke-linecap="butt" font-family="Sans Serif" font-weight="normal" text-anchor="start"><tspan x="0" dy="0">Log In</tspan></text><path d="M274.84721,253.99576v-218h10v218z" fill-opacity="0.7451" fill="#75a2ff" stroke="none" stroke-width="0" stroke-linecap="butt"/><path d="M327.84721,151.06574l-23.5,-12l-14.5,35l-4,-0.47525l8,-16.5l-6.5,-19.5l-11.5,-24.5l-34.5,16.5l-4.5,-14l-54.5,-17.5l15.5,-13.5l-4,-24.5l-23,2.5l-18,-33.5" fill="none" stroke="#ffffff" stroke-width="0.5" stroke-linecap="round"/><path d="M287.84721,173.56574l3,1l14,63l-14,22l12.5,21.5" fill="none" stroke="#ffffff" stroke-width="0.5" stroke-linecap="round"/><path d="M226.94721,149.80628l5.5,4.5l-11,4.5l-6,6l2.5,11.5l-3,13l3.5,15.5l-13,27.5l-3,-13l-7,-8l-8.6,-21.24054l-9,-6.5l-25.5,4" fill="none" stroke="#ffffff" stroke-width="0.5" stroke-linecap="round"/><path d="M258.44722,120.80628l-21.5,9l7.5,7l-17.5,14l-31,-14.5l16,35.5l-59,-25" fill="none" stroke="#ffffff" stroke-width="0.5" stroke-linecap="round"/><path d="M247.94722,72.30628l-15.5,7l67.5,6.5l-24,29" fill="none" stroke="#ffffff" stroke-width="0.5" stroke-linecap="round"/><path d="M205.94722,231.56574l10,12l7.5,26.5l31.5,11.5" fill="none" stroke="#ffffff" stroke-width="0.5" stroke-linecap="round"/></g></g></svg>