<svg version="1.1" xmlns="http://www.w3.org/2000/svg" xmlns:xlink="http://www.w3.org/1999/xlink" width="76.5" height="41.00792" viewBox="0,0,76.5,41.00792"><g transform="translate(-202,-124.5)"><g stroke="none" stroke-miterlimit="10"><path d="M212,165.5c-5.52284,0 -10,-4.47716 -10,-10v-21c0,-5.52284 4.47716,-10 10,-10h56c5.52285,0 10,4.47716 10,10l0.5,16.25c0,1.20705 -2.39489,3.77376 -5.11382,2.3962c-2.40733,-1.21968 -4.67671,1.65834 -4.67671,1.65834c0,0 -0.71239,5.19546 -3.95947,5.19546c0,0 -0.41742,5.75 -2.55557,5.5c-8.43483,-0.98623 -50.19443,0 -50.19443,0z" fill="#640f00" stroke-width="NaN"/><path d="M225.94443,144.65624c0,3.58985 -2.68629,6.5 -6,6.5c-3.31371,0 -6,-2.91015 -6,-6.5c0,-3.58985 2.68629,-6.5 6,-6.5c3.31371,0 6,2.91015 6,6.5z" fill="#6a597e" stroke-width="0"/><path d="M246,145c0,3.58985 -2.68629,6.5 -6,6.5c-3.31371,0 -6,-2.91015 -6,-6.5c0,-3.58985 2.68629,-6.5 6,-6.5c3.31371,0 6,2.91015 6,6.5z" fill="#695a7e" stroke-width="0"/><path d="M266,144.5c0,3.58985 -2.68629,6.5 -6,6.5c-3.31371,0 -6,-2.91015 -6,-6.5c0,-3.58985 2.68629,-6.5 6,-6.5c3.31371,0 6,2.91015 6,6.5z" fill="#6d6184" stroke-width="0"/></g></g></svg>