<svg version="1.1" xmlns="http://www.w3.org/2000/svg" xmlns:xlink="http://www.w3.org/1999/xlink" width="176.0677" height="275.8664" viewBox="0,0,176.0677,275.8664"><g transform="translate(-152.02951,-6.37122)"><g stroke-miterlimit="10"><path d="M164.62872,282.23762c-6.69851,0 -12.12871,-5.15094 -12.12871,-11.50495v-251.46535c0,-6.35401 5.43021,-11.50495 12.12872,-11.50495h150.74257c6.69851,0 12.12872,5.15094 12.12872,11.50495v251.46535c0,6.35401 -5.43021,11.50495 -12.12871,11.50495z" fill="#0c0c0c" stroke="none" stroke-width="0" stroke-linecap="butt"/><path d="M238.30556,24c0,-0.92637 0.75863,-1.67733 1.69445,-1.67733c0.93581,0 1.69445,0.75097 1.69445,1.67733c0,0.92637 -0.75863,1.67733 -1.69445,1.67733c-0.93581,0 -1.69445,-0.75097 -1.69445,-1.67733z" fill="#ffffff" stroke="none" stroke-width="0" stroke-linecap="butt"/><path d="M163.5,254.25001v-218.5h153v218.5z" fill="#0b0b0b" stroke="none" stroke-width="0" stroke-linecap="butt"/><path d="M287.84721,173.56574l3,1l14,63l-14,22l12.5,21.5" fill="none" stroke="#ffffff" stroke-width="0.5" stroke-linecap="round"/><path d="M194.53142,281.06574l-21.5,-15.5l15.5,-8l-8,-19.5l18.5,10.5l6.9158,-17l10,12l7.5,26.5l31.5,11.5" fill="none" stroke="#ffffff" stroke-width="0.5" stroke-linecap="round"/><path d="M327.84721,151.06574l-23.5,-12l-14.5,35l-4,-0.47525l8,-16.5l-6.5,-19.5l-11.5,-24.5l-34.5,16.5l-4.5,-14l-54.5,-17.5l15.5,-13.5l-4,-24.5l-23,2.5l-18,-33.5" fill="none" stroke="#ffffff" stroke-width="0.5" stroke-linecap="round"/><path d="M226.94721,149.80628l5.5,4.5l-11,4.5l-6,6l2.5,11.5l-3,13l3.5,15.5l-13,27.5l-3,-13l-7,-8l-8.6,-21.24054l-9,-6.5l-25.5,4" fill="none" stroke="#ffffff" stroke-width="0.5" stroke-linecap="round"/><path d="M258.44722,120.80628l-21.5,9l7.5,7l-17.5,14l-31,-14.5l16,35.5l-59,-25l16.83157,-2.48264l-4,-4l23.5,-23.5l-7,-18.5l50.5,-18.5l-5.5,-31l-24.5,1.5l-12,-20.5l26,-21.5" fill="none" stroke="#ffffff" stroke-width="0.5" stroke-linecap="round"/><path d="M237.03142,129.06573l19.5,42h-23.5l15,31.5l-29.5,3.5l27.86316,10.00001l-1.5,10.5l11.5,14l-2.5,5.5l5,8l-0.5,7l5,2.5v9l7,8l5.5,-16.5l-12,-19.5" fill="none" stroke="#ffffff" stroke-width="0.5" stroke-linecap="round"/><path d="M277.03142,114.32363l-17.5,-10l-6.5,11l-23,-10l6,-15l-54,8l-10.13683,-7.6719l-13.5,22l-5,-56.5" fill="none" stroke="#ffffff" stroke-width="0.5" stroke-linecap="round"/><path d="M299.89458,86.15173l7.5,-5.5l-10,-11l14,-16.5l-6,-30.5l12,12l7.5,-24" fill="none" stroke="#ffffff" stroke-width="0.5" stroke-linecap="round"/><path d="M232.39458,79.65173l33.5,-23l-7,-5.5l4.3842,-44.32812l32.5,23l-8,-3l11.5,43l-51.33157,2.48265l-15.5,7l67.5,6.5l-24,29l0.0842,86.75946l-43,-30.5l-17.5,-6.2421l-4,7l-32,11.5" fill="none" stroke="#ffffff" stroke-width="0.5" stroke-linecap="round"/><path d="M193.39458,61.15173l-13,-19.5l10.5,-17l-0.5,4.5" fill="none" stroke="#ffffff" stroke-width="0.5" stroke-linecap="round"/><path d="M264.89458,247.56574l11.5,-21.5l-1.5,-27l11.5,13.5l-0.5,14l17.5,8.5" fill="none" stroke="#ffffff" stroke-width="0.5" stroke-linecap="round"/></g></g></svg>