<svg version="1.1" xmlns="http://www.w3.org/2000/svg" xmlns:xlink="http://www.w3.org/1999/xlink" width="304.3003" height="304.30025" viewBox="0,0,304.3003,304.30025"><g transform="translate(-182.84989,-32.8499)"><g stroke-miterlimit="10"><path d="M184.8499,275.23519c0,-59.99896 0,-148.11906 0,-181.81815c0,-26.16557 22.73163,-58.56714 54.69562,-58.56714c60.91162,0 155.35022,0 189.899,0c25.1397,0 55.70568,31.10369 55.70568,56.54696c0,34.37139 0,127.20919 0,187.87876c0,32.57375 -30.56593,55.87453 -55.70568,55.87453c-33.79375,0 -124.88841,0 -185.85858,0c-34.07175,0 -58.73599,-25.26921 -58.73599,-59.91496z" fill="#83a08b" stroke="#83a08b" stroke-width="4" stroke-linecap="butt"/><path d="M329.58306,269.64828c0,-8.22573 6.66824,-14.89396 14.89396,-14.89396c8.22573,0 26.95083,10.56897 27.30551,21.98624c0.25533,8.22189 -19.08,7.80167 -27.30551,7.80167c-8.22573,0 -14.89396,-6.66824 -14.89396,-14.89396z" fill="#000000" stroke="#a246ff" stroke-width="2" stroke-linecap="butt"/><path d="M351.34883,230.98957c0,-7.72773 6.26454,-13.99228 13.99228,-13.99228c7.72773,0 13.99228,6.26454 13.99228,13.99228c0,7.72773 -6.26454,13.99228 -13.99228,13.99228c-7.72773,0 -13.99228,-6.26454 -13.99228,-13.99228z" fill="#000000" stroke="#a246ff" stroke-width="2" stroke-linecap="butt"/><path d="M291.70709,256.75322l39.4305,-56.41331l39.4305,56.41331z" fill="#000000" stroke="#a246ff" stroke-width="2" stroke-linecap="butt"/><path d="M286.01991,197.61928l45.64016,-78.06802l45.64032,78.06802z" fill="#000000" stroke="#a246ff" stroke-width="2" stroke-linecap="butt"/><path d="M327.24747,162.10949v13.6341" fill="none" stroke="#a246ff" stroke-width="5" stroke-linecap="round"/><path d="M343.85206,161.8474v13.63394" fill="none" stroke="#a246ff" stroke-width="5" stroke-linecap="round"/><path d="M324.60884,187.19362c0,0 -3.02079,1.6106 -8.6851,1.51684c-5.30611,-0.08795 -5.2111,-4.40106 -5.2111,-4.40106" fill="none" stroke="#a246ff" stroke-width="5" stroke-linecap="round"/><path d="M278.49998,230.10126c0,-7.72773 6.26454,-13.99228 13.99228,-13.99228c7.72773,0 13.99228,6.26454 13.99228,13.99228c0,7.72773 -6.26454,13.99228 -13.99228,13.99228c-7.72773,0 -13.99228,-6.26454 -13.99228,-13.99228z" fill="#000000" stroke="#a246ff" stroke-width="2" stroke-linecap="butt"/><path d="M288.27242,271.63428c0,-8.09598 6.56307,-14.65905 14.65905,-14.65905c8.09598,0 26.526,10.4025 26.87487,21.63971c0.25151,8.09201 -18.77889,7.67843 -26.87487,7.67843c-8.09598,0 -14.65905,-6.56307 -14.65905,-14.65905z" fill="#000000" stroke="#a246ff" stroke-width="2" stroke-linecap="butt"/></g></g></svg>