<svg version="1.1" xmlns="http://www.w3.org/2000/svg" xmlns:xlink="http://www.w3.org/1999/xlink" width="460" height="434.29156" viewBox="0,0,460,434.29156"><g transform="translate(-10,-3)"><g stroke-miterlimit="10"><path d="M213.5,233.5c0,25.4051 -28.87763,46 -64.5,46c-35.62237,0 -64.5,-20.5949 -64.5,-46c0,-25.4051 28.87763,-46 64.5,-46c35.62237,0 64.5,20.5949 64.5,46z" fill="#8eaeff" stroke="#8eaeff" stroke-width="45"/><path d="M99.5,133c0,-28.44266 23.05734,-51.5 51.5,-51.5c28.44266,0 51.5,23.05734 51.5,51.5c0,28.44266 -23.05734,51.5 -51.5,51.5c-28.44266,0 -51.5,-23.05734 -51.5,-51.5z" fill="#ffffff" stroke="#ffffff" stroke-width="45"/><path d="M132.5,279.5c-55.22847,0 -100,-44.77152 -100,-100v-54c0,-55.22847 44.77153,-100 100,-100h215c55.22848,0 100,44.77153 100,100v54c0,55.22848 -44.77152,100 -100,100h-42l10,94l-89,-94z" fill-opacity="0.01569" fill="#000000" stroke="#ffffff" stroke-width="45"/><text transform="translate(221.5,108) scale(1.15005,1.15005)" font-size="40" xml:space="preserve" fill="#ffffff" stroke="none" stroke-width="1" font-family="Sans Serif" font-weight="normal" text-anchor="start"><tspan x="0" dy="0">Set your</tspan></text><text transform="translate(221.5,169.25) scale(1.90845,1.90845)" font-size="40" xml:space="preserve" fill="#ffffff" stroke="none" stroke-width="1" font-family="Sans Serif" font-weight="normal" text-anchor="start"><tspan x="0" dy="0">USER</tspan></text><text transform="translate(239.5,221.5) scale(1.45403,1.54009)" font-size="40" xml:space="preserve" fill="#ffffff" stroke="none" stroke-width="1" font-family="Sans Serif" font-weight="normal" text-anchor="start"><tspan x="0" dy="0">NAME</tspan></text></g></g></svg>