<svg version="1.1" xmlns="http://www.w3.org/2000/svg" xmlns:xlink="http://www.w3.org/1999/xlink" width="159.21209" height="187.16588" viewBox="0,0,159.21209,187.16588"><g transform="translate(-160.26896,-51.29206)"><g stroke-miterlimit="10"><g><path d="M167.76147,213.95605c-3.95017,0 -7.1524,-3.03755 -7.1524,-6.78457v-148.29127c0,-3.74702 3.20225,-6.78457 7.15241,-6.78457h88.89419c3.95017,0 7.15241,3.03755 7.15241,6.78457v148.29127c0,3.74702 -3.20224,6.78457 -7.15241,6.78457z" fill="#0c0c0c" stroke="none" stroke-width="0" stroke-linecap="butt"/><path d="M211.20933,61.67112c0,-0.54629 0.44737,-0.98914 0.99923,-0.98914c0.55185,0 0.99923,0.44286 0.99923,0.98914c0,0.54629 -0.44738,0.98914 -0.99923,0.98914c-0.55185,0 -0.99923,-0.44286 -0.99923,-0.98914z" fill="#ffffff" stroke="none" stroke-width="0" stroke-linecap="butt"/><path d="M167.09585,197.45152v-128.85132h90.22541v128.85132z" fill="#191919" stroke="none" stroke-width="0" stroke-linecap="butt"/><text transform="translate(170.69153,143.42773) scale(0.87819,0.87819)" font-size="40" xml:space="preserve" fill="#ffc500" stroke="none" stroke-width="1" stroke-linecap="butt" font-family="Sans Serif" font-weight="normal" text-anchor="start"><tspan x="0" dy="0">brick</tspan></text><text transform="translate(167.55511,73.92295) scale(0.08239,0.12367)" font-size="40" xml:space="preserve" fill="#ffffff" stroke="none" stroke-width="1" stroke-linecap="butt" font-family="Arcade" font-weight="normal" text-anchor="start"><tspan x="0" dy="0">Secure Boot Error</tspan></text><path d="M215.06701,197.30159v-128.55647h5.89709v128.55647z" fill-opacity="0.7451" fill="#75a2ff" stroke="none" stroke-width="0" stroke-linecap="butt"/><path d="M232.75826,197.30159v-128.55647h5.89709v128.55647z" fill-opacity="0.7451" fill="#75a2ff" stroke="none" stroke-width="0" stroke-linecap="butt"/><path d="M240.42447,149.87131l1.76912,0.58971l8.25592,37.15164l-8.25592,12.97359l7.37136,12.67873" fill="none" stroke="#ffffff" stroke-width="0.5" stroke-linecap="round"/><path d="M225.93626,51.54206l19.16553,13.5633l-4.71767,-1.76913l6.78165,25.35747l-30.27067,1.46404l-9.14049,4.12796l39.80533,3.8331l-14.15301,17.10155" fill="none" stroke="#ffffff" stroke-width="0.5" stroke-linecap="round"/><path d="M251.33408,197.30159v-128.55647h5.89709v128.55647z" fill-opacity="0.7451" fill="#75a2ff" stroke="none" stroke-width="0" stroke-linecap="butt"/><path d="M194.42721,197.30159v-128.55647h5.89709v128.55647z" fill-opacity="0.7451" fill="#75a2ff" stroke="none" stroke-width="0" stroke-linecap="butt"/><path d="M223.08704,118.75861l-12.67874,5.30738l4.42282,4.12796l-10.3199,8.25592l-18.28096,-8.55077l9.43534,20.93465l-34.79281,-14.74271" fill="none" stroke="#ffffff" stroke-width="0.5" stroke-linecap="round"/><path d="M221.02306,213.55984l-18.57582,-6.78164l-4.42282,-15.62728l-5.89709,-7.0765" fill="none" stroke="#ffffff" stroke-width="0.5" stroke-linecap="round"/><path d="M173.78741,197.59644v-128.55646h5.89709v128.55647z" fill-opacity="0.7451" fill="#75a2ff" stroke="none" stroke-width="0" stroke-linecap="butt"/><path d="M264.01281,136.60287l-13.85815,-7.0765l-8.55078,20.6398l-2.35883,-0.28026l4.71767,-9.73019l-3.83311,-11.49931l-6.78165,-14.44786l-20.34495,9.73019l-2.65369,-8.25592l-32.13912,-10.3199l9.14049,-7.96107l-2.35883,-14.44786l-13.5633,1.47427l-10.61476,-19.75523" fill="none" stroke="#ffffff" stroke-width="0.5" stroke-linecap="round"/><path d="M204.51122,135.86016l3.2434,2.65369l-6.4868,2.65368l-3.53825,3.53825l1.47427,6.78164l-1.76913,7.66621l2.06398,9.14049l-7.66621,16.21698l-1.76913,-7.66621l-4.12796,-4.71767l-5.07149,-12.52572l-5.30738,-3.83311l-15.03757,2.35883" fill="none" stroke="#ffffff" stroke-width="0.5" stroke-linecap="round"/><g stroke="none" stroke-linecap="butt"><path d="M285.43131,137.1851c9.71534,-2.80347 19.86388,2.79972 22.66735,12.51505l10.6599,36.94152c2.80347,9.71534 -2.79972,19.86388 -12.51505,22.66735l-98.51072,28.42642c-9.71535,2.80349 -19.86388,-2.79972 -22.66735,-12.51505l-9.12829,-28.33189c-0.61272,-2.12334 2.29728,-7.85418 7.77947,-6.81105c4.85391,0.92357 7.38509,-5.29119 7.38509,-5.29119c0,0 -1.38411,-9.50106 4.32789,-11.14932c0,0 -2.18449,-10.32683 1.70367,-10.97241c15.33851,-2.54675 88.29803,-25.47943 88.29803,-25.47943z" fill="#640f00" stroke-width="NaN"/><path d="M271.48198,180.93017c-1.82226,-6.31497 1.42601,-12.79787 7.25522,-14.47997c5.82921,-1.68209 12.03195,2.07362 13.85421,8.38859c1.82226,6.31497 -1.42601,12.79787 -7.25522,14.47997c-5.82921,1.68209 -12.03195,-2.07362 -13.85421,-8.38859z" fill="#6a597e" stroke-width="0"/><path d="M236.02734,190.50597c-1.82226,-6.31497 1.42601,-12.79787 7.25522,-14.47997c5.82921,-1.68209 12.03195,2.07362 13.85421,8.38859c1.82226,6.31497 -1.42601,12.79787 -7.25522,14.47997c-5.82921,1.68209 -12.03195,-2.07362 -13.85421,-8.38859z" fill="#695a7e" stroke-width="0"/><path d="M201.82265,200.98177c-1.82226,-6.31497 1.42601,-12.79787 7.25522,-14.47997c5.82921,-1.68209 12.03195,2.07362 13.85421,8.38859c1.82226,6.31497 -1.42601,12.79787 -7.25522,14.47997c-5.82921,1.68209 -12.03195,-2.07362 -13.85421,-8.38859z" fill="#6d6184" stroke-width="0"/></g></g></g></g></svg>