<svg version="1.1" xmlns="http://www.w3.org/2000/svg" xmlns:xlink="http://www.w3.org/1999/xlink" width="176" height="275.66399" viewBox="0,0,176,275.66399"><g transform="translate(-152.09721,-6.57363)"><g stroke-miterlimit="10"><path d="M164.62872,282.23762c-6.69851,0 -12.12871,-5.15094 -12.12871,-11.50495v-251.46535c0,-6.35401 5.43021,-11.50495 12.12872,-11.50495h150.74257c6.69851,0 12.12872,5.15094 12.12872,11.50495v251.46535c0,6.35401 -5.43021,11.50495 -12.12871,11.50495z" fill="#0c0c0c" stroke="none" stroke-width="0" stroke-linecap="butt"/><path d="M238.30556,24c0,-0.92637 0.75863,-1.67733 1.69445,-1.67733c0.93581,0 1.69445,0.75097 1.69445,1.67733c0,0.92637 -0.75863,1.67733 -1.69445,1.67733c-0.93581,0 -1.69445,-0.75097 -1.69445,-1.67733z" fill="#ffffff" stroke="none" stroke-width="0" stroke-linecap="butt"/><path d="M163.5,254.25001v-218.5h153v218.5z" fill="#191919" stroke="none" stroke-width="0" stroke-linecap="butt"/><text transform="translate(192.49005,150.76875) scale(0.5,0.5)" font-size="40" xml:space="preserve" fill="#ffc500" stroke="none" stroke-width="1" stroke-linecap="butt" font-family="Sans Serif" font-weight="normal" text-anchor="start"><tspan x="0" dy="0">fire HD 10</tspan></text><text transform="translate(164.27879,44.77608) scale(0.13971,0.20971)" font-size="40" xml:space="preserve" fill="#ffffff" stroke="none" stroke-width="1" stroke-linecap="butt" font-family="Arcade" font-weight="normal" text-anchor="start"><tspan x="0" dy="0">Secure Boot Error</tspan></text><path d="M244.84722,253.99576v-218h10v218z" fill-opacity="0.7451" fill="#75a2ff" stroke="none" stroke-width="0" stroke-linecap="butt"/><path d="M274.84721,253.99576v-218h10v218z" fill-opacity="0.7451" fill="#75a2ff" stroke="none" stroke-width="0" stroke-linecap="butt"/><path d="M287.84721,173.56574l3,1l14,63l-14,22l12.5,21.5" fill="none" stroke="#ffffff" stroke-width="0.5" stroke-linecap="round"/><path d="M263.27879,6.82363l32.5,23l-8,-3l11.5,43l-51.33157,2.48265l-15.5,7l67.5,6.5l-24,29" fill="none" stroke="#ffffff" stroke-width="0.5" stroke-linecap="round"/><path d="M306.34722,253.99576v-218h10v218z" fill-opacity="0.7451" fill="#75a2ff" stroke="none" stroke-width="0" stroke-linecap="butt"/><path d="M209.84722,253.99576v-218h10v218z" fill-opacity="0.7451" fill="#75a2ff" stroke="none" stroke-width="0" stroke-linecap="butt"/><path d="M258.44722,120.80628l-21.5,9l7.5,7l-17.5,14l-31,-14.5l16,35.5l-59,-25" fill="none" stroke="#ffffff" stroke-width="0.5" stroke-linecap="round"/><path d="M254.94722,281.56574l-31.5,-11.5l-7.5,-26.5l-10,-12" fill="none" stroke="#ffffff" stroke-width="0.5" stroke-linecap="round"/><path d="M174.84722,254.49576v-218h10v218z" fill-opacity="0.7451" fill="#75a2ff" stroke="none" stroke-width="0" stroke-linecap="butt"/><path d="M327.84721,151.06574l-23.5,-12l-14.5,35l-4,-0.47525l8,-16.5l-6.5,-19.5l-11.5,-24.5l-34.5,16.5l-4.5,-14l-54.5,-17.5l15.5,-13.5l-4,-24.5l-23,2.5l-18,-33.5" fill="none" stroke="#ffffff" stroke-width="0.5" stroke-linecap="round"/><path d="M226.94721,149.80628l5.5,4.5l-11,4.5l-6,6l2.5,11.5l-3,13l3.5,15.5l-13,27.5l-3,-13l-7,-8l-8.6,-21.24054l-9,-6.5l-25.5,4" fill="none" stroke="#ffffff" stroke-width="0.5" stroke-linecap="round"/><path d="M232.77879,79.82364l-5.5,-31l-24.5,1.5l-12,-20.5l26,-21.5" fill="none" stroke="#ffffff" stroke-width="0.5" stroke-linecap="round"/></g></g></svg>